<svg xmlns="http://www.w3.org/2000/svg" viewBox="0 0 64 64" fill="none">
  <defs>
    <linearGradient id="yogaGoldGrad" x1="16" y1="10" x2="50" y2="52" gradientUnits="userSpaceOnUse">
      <stop offset="0%" stop-color="#F5D688"/>
      <stop offset="50%" stop-color="#C99436"/>
      <stop offset="100%" stop-color="#9A6C1C"/>
    </linearGradient>
    <linearGradient id="yogaEmeraldGrad" x1="20" y1="10" x2="44" y2="50" gradientUnits="userSpaceOnUse">
      <stop offset="0%" stop-color="#2D604C"/>
      <stop offset="100%" stop-color="#0A2118"/>
    </linearGradient>
    <radialGradient id="yogaAuraGrad" cx="32" cy="32" r="30" gradientUnits="userSpaceOnUse">
      <stop offset="0%" stop-color="#FFFFFF"/>
      <stop offset="70%" stop-color="#FAF7F2"/>
      <stop offset="100%" stop-color="#ECE3D2"/>
    </radialGradient>
  </defs>

  <!-- Sacred Aura Medallion Disc -->
  <circle cx="32" cy="32" r="30" fill="url(#yogaAuraGrad)"/>
  <circle cx="32" cy="32" r="30" stroke="url(#yogaGoldGrad)" stroke-width="1.5" stroke-dasharray="2.5 3.5"/>
  <circle cx="32" cy="32" r="27" stroke="#DCD3C3" stroke-width="0.8"/>

  <!-- Chandra Moon (Lunar Restorative Balance) -->
  <path d="M43 21C41 33 32 42 19 40C27 44 38 43 43 35C45.5 31 45.5 26 43 21Z" 
        fill="url(#yogaGoldGrad)" opacity="0.35"/>

  <!-- Ascending Sacred Lotus Petals (Flowing Prāna Energy) -->
  <path d="M32 38C22 37 13 29 15 18C21 19 28 27 32 38Z" 
        fill="url(#yogaGoldGrad)" fill-opacity="0.95"/>
  <path d="M32 38C42 37 51 29 49 18C43 19 36 27 32 38Z" 
        fill="url(#yogaGoldGrad)" fill-opacity="0.95"/>
  <path d="M32 40C25 34 22 24 25 15C29 21 31 29 32 40Z" 
        fill="url(#yogaEmeraldGrad)" fill-opacity="0.92"/>
  <path d="M32 40C39 34 42 24 39 15C35 21 33 29 32 40Z" 
        fill="url(#yogaEmeraldGrad)" fill-opacity="0.92"/>

  <!-- Meditating Yogi Figure in Lotus Pose with Anjali Mudra -->
  <path d="M20 44.5C23 40.5 27 39 32 39C37 39 41 40.5 44 44.5C42 47.5 38 48.5 32 48.5C26 48.5 22 47.5 20 44.5Z" 
        fill="url(#yogaEmeraldGrad)"/>
  <path d="M32 25C29.5 27.5 28.5 30 29 34C30.5 35 33.5 35 35 34C35.5 30 34.5 27.5 32 25Z" 
        fill="url(#yogaEmeraldGrad)"/>
  <circle cx="32" cy="21" r="3.2" fill="url(#yogaEmeraldGrad)"/>

  <!-- Illuminated Crown Chakra Flame & Golden Bindu -->
  <circle cx="32" cy="14" r="2.2" fill="url(#yogaGoldGrad)"/>
  <path d="M32 8.5C30.8 10.5 30.8 12.2 32 13.5C33.2 12.2 33.2 10.5 32 8.5Z" fill="url(#yogaGoldGrad)"/>

  <!-- Grounding Ripples -->
  <path d="M22 52C26 54 38 54 42 52" stroke="url(#yogaGoldGrad)" stroke-width="1.8" stroke-linecap="round"/>
  <path d="M26 55.5C28.5 56.8 35.5 56.8 38 55.5" stroke="url(#yogaEmeraldGrad)" stroke-width="1.3" stroke-linecap="round" opacity="0.75"/>
</svg>
